# xmcd
#
# Track frame offsets:
#	150
#	16541
#	31543
#	47768
#	67096
#	86376
#	99688
#	116274
#	130575
#	146787
#	162450
#	178841
#	193843
#	210068
#	229396
#	248676
#	261988
#	278574
#	292875
#	309087
#
# Disc length: 4328 seconds
#
# Revision: 1
# Processed by: cddbd v1.5.2PL0 Copyright (c) Steve Scherf et al.
# Submitted via: audiograbber 1.83.01
#
DISCID=0a10e614
DTITLE=Various Artist - THC0710 Panorama Country Karaoke
DYEAR=1900
DGENRE=Country
TTITLE0=Toby Keith w/Vocal - Love Me if You Can
TTITLE1=Lee Brice w/Vocal - She Ain't Right
TTITLE2=Sara Evans w/Vocal - As If
TTITLE3=Brad Paisley w/Vocal - Online
TTITLE4=Kenny Chesney w/Vocal - Flip Flop Summer
TTITLE5=Danielle Peck w/Vocal - Bad for Me
TTITLE6=Blake Shelton w/Vocal - More I Drink
TTITLE7=Jo Dee Messina w/Vocal - Biker Chick
TTITLE8=Sarah Jones w/Vocal - One in the Middle
TTITLE9=Josh Turner w/Vocal - Firecracker
TTITLE10=Toby Keith - Love Me if You Can
TTITLE11=Lee Brice  - She Ain't Right
TTITLE12=Sara Evans - As If
TTITLE13=Brad Paisley - Online
TTITLE14=Kenny Chesney - Flip Flop Summer
TTITLE15=Danielle Peck - Bad for Me
TTITLE16=Blake Shelton - More I Drink
TTITLE17=Jo Dee Messina - Biker Chick
TTITLE18=Sarah Jones - One in the Middle
TTITLE19=Josh Turner - Firecracker
EXTD=
EXTT0=
EXTT1=
EXTT2=
EXTT3=
EXTT4=
EXTT5=
EXTT6=
EXTT7=
EXTT8=
EXTT9=
EXTT10=
EXTT11=
EXTT12=
EXTT13=
EXTT14=
EXTT15=
EXTT16=
EXTT17=
EXTT18=
EXTT19=
PLAYORDER=
